<svg width="394" height="66" viewBox="0 0 394 66" fill="none" xmlns="http://www.w3.org/2000/svg">
<rect width="394" height="66" fill="white"/>
<path d="M78 19.8079V55.3372H81.5808V39.6093H93.2486V55.3372H96.8294V19.8079H93.2486V34.8758H81.5808V19.8079H78Z" fill="#333333"/>
<path d="M113.889 19.2516C111.984 19.2516 110.254 19.7042 108.725 20.6283C107.203 21.5523 105.909 22.8441 104.849 24.5037C103.77 26.2318 102.955 28.2539 102.455 30.4441C101.901 32.8686 101.63 35.4032 101.651 37.9497C101.651 40.4296 101.919 42.7586 102.455 44.9462C102.999 47.1149 103.783 49.0385 104.802 50.6603C105.828 52.301 107.082 53.5834 108.544 54.5263C110.019 55.4692 111.669 55.9407 113.48 55.9407C115.391 55.9407 117.114 55.4598 118.616 54.4886C120.075 53.57 121.37 52.204 122.405 50.4906C123.453 48.7292 124.24 46.69 124.718 44.4936C125.249 42.1043 125.511 39.6134 125.496 37.1105C125.496 34.6024 125.228 32.245 124.698 30.0763C124.168 27.9076 123.397 26.0029 122.391 24.3999C121.377 22.782 120.126 21.492 118.723 20.6188C117.202 19.6852 115.555 19.2191 113.895 19.2516H113.889ZM113.661 24.0133C115.136 24.0133 116.363 24.3811 117.355 25.0694C118.381 25.786 119.206 26.7384 119.857 27.9359C120.514 29.1523 121.01 30.5761 121.325 32.2356C121.647 33.9046 121.808 35.6867 121.815 37.582C121.815 39.6093 121.627 41.4574 121.265 43.1452C120.943 44.6993 120.405 46.1481 119.682 47.4072C118.986 48.5977 118.102 49.5436 117.101 50.17C116.075 50.83 114.874 51.1789 113.459 51.1789C112.058 51.1789 110.871 50.8017 109.872 50.0851C108.884 49.3901 108.02 48.391 107.344 47.1621C106.673 45.9174 106.164 44.4936 105.828 42.8529C105.484 41.1674 105.317 39.4203 105.332 37.6668C105.332 35.7527 105.533 33.9612 105.902 32.2733C106.24 30.7 106.791 29.2335 107.525 27.9548C108.265 26.6816 109.203 25.6642 110.267 24.9809C111.331 24.2976 112.492 23.9666 113.661 24.0133Z" fill="#333333"/>
<path d="M131.471 19.8079V55.356H135.052V40.7125H136.996C137.445 40.7125 137.841 40.7879 138.176 40.9199C138.485 41.0519 138.793 41.2688 139.082 41.58C139.377 41.8911 139.685 42.3343 139.987 42.9283C140.289 43.513 140.617 44.2673 140.966 45.1914L144.755 55.3466H148.912L144.352 43.513C144.084 42.7963 143.816 42.1552 143.568 41.5894C143.3 41.0048 143.038 40.4862 142.77 40.0336C142.569 39.6847 142.354 39.3735 142.126 39.0906C143.276 38.498 144.298 37.5014 145.097 36.1959C145.627 35.3224 146.039 34.3186 146.31 33.2351C146.599 32.1225 146.739 30.9155 146.739 29.6331C146.739 28.0396 146.518 26.5969 146.069 25.3429C145.655 24.1381 145.054 23.0783 144.312 22.2406C143.579 21.4224 142.745 20.8022 141.851 20.4114C140.94 20.0098 139.99 19.8063 139.035 19.8079H131.471ZM135.052 24.5885H138.518C140.108 24.5885 141.214 25.1165 141.938 26.0218C142.676 26.9647 143.045 28.1528 143.051 29.9066C143.051 30.8778 142.937 31.717 142.716 32.4525C142.488 33.188 142.18 33.7914 141.777 34.31C141.382 34.8286 140.899 35.2341 140.309 35.517C139.719 35.7999 139.068 35.9602 138.337 35.9602H135.052V24.5885Z" fill="#333333"/>
<path d="M153.76 19.8079V55.3466H157.348V19.8079H153.76Z" fill="#333333"/>
<path d="M163.557 19.8079V24.598H176.01L162.417 53.1779V55.3466H181.106V50.5849H167.721L181.394 21.8635V19.8079H163.557Z" fill="#333333"/>
<path d="M196.381 19.2516C194.47 19.2516 192.74 19.7042 191.211 20.6283C189.696 21.5523 188.395 22.8441 187.335 24.5131C186.255 26.2401 185.44 28.2625 184.942 30.4535C184.385 32.8776 184.111 35.4121 184.13 37.9592C184.13 40.4296 184.398 42.7681 184.942 44.9368C185.453 47.0404 186.25 48.9842 187.288 50.6603C188.314 52.301 189.568 53.5834 191.03 54.5263C192.505 55.4692 194.162 55.9407 195.966 55.9407C197.877 55.9407 199.6 55.4598 201.102 54.4886C202.562 53.5667 203.856 52.1975 204.891 50.4812C205.939 48.7225 206.725 46.6866 207.204 44.4936C207.735 42.1044 207.997 39.6135 207.982 37.1105C207.982 34.6024 207.714 32.2451 207.177 30.0669C206.685 27.9795 205.904 26.0501 204.877 24.3905C203.862 22.7773 202.611 21.4908 201.209 20.6188C199.688 19.6852 198.042 19.2191 196.381 19.2516ZM196.147 24.0133C197.622 24.0133 198.849 24.3811 199.835 25.0694C200.867 25.786 201.692 26.7384 202.343 27.9359C203 29.1428 203.489 30.5761 203.811 32.2356C204.133 33.9046 204.301 35.6961 204.301 37.582C204.301 39.6093 204.113 41.448 203.751 43.1452C203.432 44.7008 202.894 46.1502 202.168 47.4072C201.472 48.5977 200.588 49.5436 199.587 50.17C198.44 50.8757 197.197 51.22 195.945 51.1789C194.771 51.2488 193.602 50.9193 192.537 50.2184C191.473 49.5175 190.544 48.4658 189.83 47.1526C189.159 45.9174 188.65 44.4936 188.314 42.8529C187.979 41.25 187.812 39.581 187.812 37.8271V37.6668C187.825 35.7527 188.013 33.9517 188.388 32.2733C188.726 30.7004 189.277 29.234 190.011 27.9548C190.717 26.7429 191.603 25.7615 192.606 25.0788C193.712 24.3436 194.924 23.9789 196.147 24.0133Z" fill="#333333"/>
<path d="M213.964 19.8079V55.3372H217.544V28.6808L230.661 55.3372H234V19.8079H230.399V46.238L217.457 19.8079H213.964Z" fill="#333333"/>
<path d="M245.775 8.25V58.2077H250.601V23.6912L250.59 21.5297L263.724 58.2077H266.137L279.207 21.3946C279.176 22.4619 279.154 23.34 279.154 24.056V58.2077H284.002V8.25H278.922L265.83 45.009C265.509 45.909 265.223 46.8287 264.973 47.7649C264.931 47.6298 264.899 47.4812 264.846 47.3596L264.063 44.982L251.045 8.25H245.775Z" fill="#8CFC2F"/>
<path d="M307.179 8.2634L292.278 58.2211H297.675L301.739 43.9822H316.926L321.085 58.2211H326.483L311.666 8.2634H307.179ZM309.306 17.4903L309.412 17.8956H309.423L315.233 38.1191H303.432L309.19 17.9091L309.306 17.4903Z" fill="#8CFC2F"/>
<path d="M334.748 8.25V58.2077H354.814V52.3446H339.659V8.25H334.748Z" fill="#8CFC2F"/>
<path d="M363.799 8.2634V58.2076H383.865V52.3445H368.699V8.2634H363.799Z" fill="#8CFC2F"/>
<path d="M64.4435 38.9063L64.6513 38.3464L64.0919 38.1454C49.5033 32.8553 32.1377 29.3094 11 31.9365C11.0839 33.4869 11.3356 34.9943 11.7192 36.4586C30.0758 33.4223 47.945 34.1186 64.4435 38.9063Z" fill="#8CFC2F"/>
<path d="M63.8362 40.3275C48.872 37.7434 32.7011 37.8762 15.0397 43.6616C16.0483 45.1296 17.2255 46.4985 18.552 47.7458C32.5253 43.134 47.6053 40.9807 63.6484 40.6971L63.8362 40.3275Z" fill="#8CFC2F"/>
<path d="M64.927 37.5173C65.9781 34.2205 66.2539 30.7633 65.7367 27.3657C65.2194 23.968 63.9206 20.7042 61.9228 17.7818C59.9249 14.8595 57.2718 12.3426 54.1322 10.3912C50.9926 8.43981 47.4351 7.09668 43.6862 6.44723C39.9373 5.79778 36.0789 5.85623 32.3565 6.61885C28.634 7.38147 25.1291 8.83158 22.0645 10.8769C18.9999 12.9223 16.4428 15.5181 14.5558 18.4993C12.6688 21.4805 11.4932 24.7818 11.1039 28.1932C32.1536 26.955 50.1426 30.3717 64.927 37.5173Z" fill="#8CFC2F"/>
<path d="M38.479 55.4262C43.5371 55.4265 48.4974 54.174 52.8145 51.8066C57.1315 49.4392 60.6383 46.0484 62.9491 42.0071C51.2575 44.4117 40.0773 48.3093 29.6243 54.1091C32.4752 54.9822 35.4669 55.4272 38.479 55.4262Z" fill="#8CFC2F"/>
</svg>
